<?xml version="1.0" encoding="UTF-8"?>
<svg
  xmlns="http://www.w3.org/2000/svg"
  viewBox="91.92 396.59 957.61 556.73"
  width="174"
  height="101"
  role="img"
  aria-label="INIT"
>
  <g fill="#231f20">
    <path d="m 160.52,819.72 c -5.02,-23.46 -7.54,-53.87 -7.54,-91.22 V 621.43 c 0,-37.35 2.51,-67.76 7.54,-91.22 5.03,-23.45 13.04,-44.64 24.06,-63.56 11.01,-18.91 28.01,-42.26 51,-70.04 h -63.21 c -25.38,26.34 -45.14,56.74 -59.26,91.22 -14.13,34.48 -21.19,79.49 -21.19,135.04 v 104.2 c 0,55.55 7.06,100.56 21.19,135.03 14.12,34.48 33.87,64.88 59.26,91.22 h 63.21 c -22.98,-27.78 -39.99,-51.12 -51,-70.03 -11.02,-18.91 -19.04,-40.1 -24.06,-63.57 z" />
    <path d="m 1028.34,487.82 c -14.13,-34.48 -33.88,-64.88 -59.26,-91.22 h -63.21 c 22.98,27.78 39.97,51.12 51,70.04 11.01,18.92 19.04,40.11 24.06,63.56 5.03,23.47 7.54,53.87 7.54,91.22 v 107.07 c 0,37.35 -2.51,67.77 -7.54,91.22 -5.03,23.47 -13.05,44.66 -24.06,63.57 -11.02,18.91 -28.01,42.25 -51,70.03 h 63.21 c 25.38,-26.34 45.13,-56.74 59.26,-91.22 14.12,-34.48 21.19,-79.48 21.19,-135.03 v -104.2 c 0,-55.55 -7.07,-100.56 -21.19,-135.04 z" />
    <path d="m 341.55,495.39 h -111.4 c -23.95,6.45 -24.46,42.18 -24.46,53.87 h 74.8 v 404.06 h 167.36 v -53.87 h -106.3 z" />
    <rect x="280.48999" y="396.60001" width="61.049999" height="53.869999" />
    <path d="m 534.06,495.39 h -33.04 c -23.47,0 -42.62,5.74 -57.46,17.24 V 495.39 H 386.1 v 359.14 h 61.05 V 588.77 c 0,-9.57 3.83,-18.55 11.5,-26.94 7.65,-8.38 19.39,-12.57 35.19,-12.57 h 47.41 c 14.37,0 25.74,4.2 34.12,12.57 8.38,8.38 12.57,19.75 12.57,34.12 v 357.37 h 61.05 V 610.31 c 0,-40.22 -9.46,-69.43 -28.37,-87.63 -18.92,-18.19 -47.77,-27.29 -86.55,-27.29 z" />
    <rect x="693.90997" y="396.60001" width="61.049999" height="53.869999" />
    <polygon points="860.95,899.45 755.03,899.45 755.03,495.39 659.76,495.39 659.76,549.26 693.98,549.26 693.98,953.32 860.95,953.32" />
    <path d="m 937.89,800.66 h -44.63 c -11.02,0 -19.16,-2.16 -24.42,-6.47 -5.27,-4.31 -7.9,-11.73 -7.9,-22.27 V 549.25 h 21.51 c 17.77,0 43.08,0 55.37,0 0,-11.69 -0.51,-47.42 -24.46,-53.87 h -52.42 v -98.79 h -61.05 v 371.74 c 0,25.86 6.47,46.69 19.39,62.49 12.93,15.8 31.61,23.7 56.03,23.7 h 1.67 c 0,0 11.79,0 36.45,0 23.95,-6.45 24.46,-42.18 24.46,-53.87 z" />
  </g>
</svg>
